<svg width="171" height="171" viewBox="0 0 171 171" fill="none" xmlns="http://www.w3.org/2000/svg">
<rect x="1.12303" y="2.73836" width="166.987" height="166.987" rx="27.7394" transform="rotate(-0.554233 1.12303 2.73836)" fill="#F3F3F3" stroke="url(#paint0_linear_19_1618)" stroke-width="2"/>
<path d="M95.484 60.4533C89.8298 64.3367 83.1869 65.1572 59.101 58.3534C43.6093 53.9768 32.9842 65.773 33.1145 81.1902C33.1791 88.8431 34.626 96.2356 37.9508 102.601C41.9224 110.197 58.2714 125.671 60.5647 112.28C70.0167 57.1162 72.4776 97.2651 83.0201 96.4087C90.1589 95.8285 91.219 48.0467 108.626 114.078C113.361 132.042 136.921 100.059 136.729 80.1878C136.658 72.8386 135.342 65.7296 132.249 59.5545C124.529 44.141 106.901 52.6101 95.484 60.4533Z" fill="url(#paint1_radial_19_1618)"/>
<mask id="mask0_19_1618" style="mask-type:alpha" maskUnits="userSpaceOnUse" x="33" y="50" width="104" height="70">
<path d="M95.484 60.4533C89.8298 64.3367 83.1869 65.1572 59.101 58.3534C43.6093 53.9768 32.9842 65.773 33.1145 81.1902C33.1791 88.8431 34.626 96.2356 37.9508 102.601C41.9224 110.197 58.2714 125.671 60.5647 112.28C70.0167 57.1162 72.4776 97.2651 83.0201 96.4087C90.1589 95.8285 91.219 48.0467 108.626 114.078C113.361 132.042 136.921 100.059 136.729 80.1878C136.658 72.8386 135.342 65.7296 132.249 59.5545C124.529 44.141 106.901 52.6101 95.484 60.4533Z" fill="white"/>
</mask>
<g mask="url(#mask0_19_1618)">
<path d="M44.812 116.77C44.812 116.77 54.1024 83.863 79.7886 109.831C102.039 132.323 131.141 101.224 131.141 101.224L129.532 129.719L83.8465 139.779L35.9955 140.242L44.812 116.77Z" fill="url(#paint2_linear_19_1618)"/>
<path d="M65.9796 45.6502C65.9796 45.6502 43.7496 45.8653 48.3781 76.3744C50.5233 90.5122 48.0517 106.711 25.2357 112.375C2.41974 118.039 16.8283 41.9953 16.8283 41.9953L75.2263 8.2171L65.9796 45.6502Z" fill="url(#paint3_radial_19_1618)"/>
<path d="M84.5724 40.8741C84.5724 40.8741 82.6521 76.6596 104.811 75.6965C126.969 74.7352 136.769 83.9122 136.988 99.9585C137.207 116.005 166.346 66.6668 166.346 66.6668L126.909 22.3132L84.5724 40.8741Z" fill="url(#paint4_radial_19_1618)"/>
</g>
<circle cx="76.1826" cy="114.625" r="3.98931" transform="rotate(-0.554233 76.1826 114.625)" fill="#E05500"/>
<circle cx="92.1388" cy="114.471" r="3.98931" transform="rotate(-0.554233 92.1388 114.471)" fill="#E05500"/>
<defs>
<linearGradient id="paint0_linear_19_1618" x1="84.6071" y1="1.74808" x2="84.6071" y2="170.736" gradientUnits="userSpaceOnUse">
<stop stop-color="white"/>
<stop offset="1" stop-color="white" stop-opacity="0"/>
</linearGradient>
<radialGradient id="paint1_radial_19_1618" cx="0" cy="0" r="1" gradientUnits="userSpaceOnUse" gradientTransform="translate(84.969 85.4596) rotate(-0.571808) scale(92.516 92.6127)">
<stop stop-color="#FF9900"/>
<stop offset="1" stop-color="#C41700"/>
</radialGradient>
<linearGradient id="paint2_linear_19_1618" x1="27.4377" y1="116.057" x2="157.048" y2="124.018" gradientUnits="userSpaceOnUse">
<stop stop-color="#FF9900"/>
<stop offset="0.384615" stop-color="#F58300"/>
<stop offset="0.721154" stop-color="#FB7625"/>
<stop offset="1" stop-color="#A71C09"/>
</linearGradient>
<radialGradient id="paint3_radial_19_1618" cx="0" cy="0" r="1" gradientUnits="userSpaceOnUse" gradientTransform="translate(43.9122 60.4966) rotate(-0.597749) scale(56.819 140.828)">
<stop stop-color="#FF9900"/>
<stop offset="1" stop-color="#C41700"/>
</radialGradient>
<radialGradient id="paint4_radial_19_1618" cx="0" cy="0" r="1" gradientUnits="userSpaceOnUse" gradientTransform="translate(125.515 62.8108) rotate(-0.580671) scale(72.8432 109.69)">
<stop stop-color="#FF9900"/>
<stop offset="1" stop-color="#C41700"/>
</radialGradient>
</defs>
</svg>
