<svg width="231" height="231" viewBox="0 0 231 231" fill="none" xmlns="http://www.w3.org/2000/svg">
<rect x="84.8597" y="1.36601" width="166.987" height="166.987" rx="27.7394" transform="rotate(30 84.8597 1.36601)" fill="#F3F3F3" stroke="url(#paint0_linear_19_1618)" stroke-width="2"/>
<path d="M136.779 99.0359C129.936 99.5057 123.798 96.8354 106.515 78.7321C95.3994 67.0879 80.253 71.8449 72.5278 85.1876C68.693 91.8108 66.181 98.9123 65.8083 106.084C65.3669 114.645 71.5798 136.28 80.3619 125.915C116.544 83.2157 98.2535 119.041 107.768 123.663C114.21 126.792 139.413 86.1838 120.836 151.896C115.781 169.773 152.329 154.207 162.265 136.997C165.939 130.632 168.42 123.841 168.896 116.951C170.084 99.7539 150.598 98.0856 136.779 99.0359Z" fill="url(#paint1_radial_19_1618)"/>
<mask id="mask0_19_1618" style="mask-type:alpha" maskUnits="userSpaceOnUse" x="65" y="72" width="104" height="88">
<path d="M136.779 99.0359C129.936 99.5057 123.798 96.8354 106.515 78.7321C95.3994 67.0879 80.253 71.8449 72.5278 85.1876C68.693 91.8108 66.181 98.9123 65.8083 106.084C65.3669 114.645 71.5798 136.28 80.3619 125.915C116.544 83.2157 98.2535 119.041 107.768 123.663C114.21 126.792 139.413 86.1838 120.836 151.896C115.781 169.773 152.329 154.207 162.265 136.997C165.939 130.632 168.42 123.841 168.896 116.951C170.084 99.7539 150.598 98.0856 136.779 99.0359Z" fill="white"/>
</mask>
<g mask="url(#mask0_19_1618)">
<path d="M64.5139 121.774C64.5139 121.774 89.2428 98.1587 98.1617 133.578C105.888 164.259 146.759 152.272 146.759 152.272L130.888 175.992L86.4315 161.431L44.9894 137.505L64.5139 121.774Z" fill="url(#paint2_linear_19_1618)"/>
<path d="M118.896 71.2896C118.896 71.2896 99.6438 60.1741 88.1201 88.7999C82.7805 102.065 72.4174 114.758 49.8903 108.037C27.3631 101.316 78.4279 43.1559 78.4279 43.1559L145.888 43.7547L118.896 71.2896Z" fill="url(#paint3_radial_19_1618)"/>
<path d="M137.336 76.6284C137.336 76.6284 117.49 106.469 137.062 116.904C156.632 127.341 160.406 140.225 152.437 154.154C144.469 168.084 194.643 140.41 194.643 140.41L183.229 82.1666L137.336 76.6284Z" fill="url(#paint4_radial_19_1618)"/>
</g>
<circle cx="92.619" cy="135.874" r="3.98931" transform="rotate(30 92.619 135.874)" fill="#E05500"/>
<circle cx="106.438" cy="143.853" r="3.98931" transform="rotate(30 106.438 143.853)" fill="#E05500"/>
<defs>
<linearGradient id="paint0_linear_19_1618" x1="168.987" y1="-1.52588e-05" x2="168.987" y2="168.987" gradientUnits="userSpaceOnUse">
<stop stop-color="white"/>
<stop offset="1" stop-color="white" stop-opacity="0"/>
</linearGradient>
<radialGradient id="paint1_radial_19_1618" cx="0" cy="0" r="1" gradientUnits="userSpaceOnUse" gradientTransform="translate(115.012 115.225) rotate(29.9824) scale(92.516 92.6127)">
<stop stop-color="#FF9900"/>
<stop offset="1" stop-color="#C41700"/>
</radialGradient>
<linearGradient id="paint2_linear_19_1618" x1="49.9146" y1="112.327" x2="157.481" y2="185.071" gradientUnits="userSpaceOnUse">
<stop stop-color="#FF9900"/>
<stop offset="0.384615" stop-color="#F58300"/>
<stop offset="0.721154" stop-color="#FB7625"/>
<stop offset="1" stop-color="#A71C09"/>
</linearGradient>
<radialGradient id="paint3_radial_19_1618" cx="0" cy="0" r="1" gradientUnits="userSpaceOnUse" gradientTransform="translate(92.3459 72.8565) rotate(29.9565) scale(56.819 140.828)">
<stop stop-color="#FF9900"/>
<stop offset="1" stop-color="#C41700"/>
</radialGradient>
<radialGradient id="paint4_radial_19_1618" cx="0" cy="0" r="1" gradientUnits="userSpaceOnUse" gradientTransform="translate(161.442 116.332) rotate(29.9736) scale(72.8432 109.69)">
<stop stop-color="#FF9900"/>
<stop offset="1" stop-color="#C41700"/>
</radialGradient>
</defs>
</svg>
